<?xml version="1.0" encoding="utf-8"?>
<!-- Generator: Adobe Illustrator 24.0.0, SVG Export Plug-In . SVG Version: 6.00 Build 0)  -->
<svg version="1.1" id="final" xmlns="http://www.w3.org/2000/svg" xmlns:xlink="http://www.w3.org/1999/xlink" x="0px" y="0px"
    viewBox="0 0 717.15 180" style="enable-background:new 0 0 717.15 180;" xml:space="preserve">
<style type="text/css">
	.st0{fill:url(#SVGID_1_);}
	.st1{fill:#FFFFFF;}
</style>
<g>
	<linearGradient id="SVGID_1_" gradientUnits="userSpaceOnUse" x1="309.5249" y1="82.6752" x2="459.0874" y2="82.6752">
		<stop  offset="0" style="stop-color:#00C2F9"/>
		<stop  offset="1" style="stop-color:#143DFB"/>
	</linearGradient>
	<path class="st0" d="M423.11,3.25L321.52,61.9c-15.99,9.23-15.99,32.31,0,41.54l101.59,58.65c15.99,9.23,35.98-2.31,35.98-20.77
		V24.02C459.09,5.56,439.1-5.98,423.11,3.25z M401.39,120.02c-20.72,0-37.51-16.79-37.51-37.51c0-20.72,16.79-37.51,37.51-37.51
		c20.72,0,37.51,16.79,37.51,37.51C438.9,103.22,422.11,120.02,401.39,120.02z"/>
	<g>
		<path class="st1" d="M68.31,137.29H0.96v-20h67.35c5.42,0,9.84-4.44,9.84-9.89c0-4.59-3.1-8.55-7.54-9.62L22.85,86.27
			C9.4,83.03,0,71.08,0,57.21v-0.45c0-16.48,13.38-29.89,29.84-29.89h60.49v20H29.84c-5.42,0-9.84,4.44-9.84,9.89v0.45
			c0,4.59,3.1,8.55,7.54,9.62l47.75,11.51c13.46,3.25,22.85,15.2,22.85,29.06C98.15,123.89,84.76,137.29,68.31,137.29z"/>
	</g>
	<path class="st1" d="M532.74,24.63c-14.48,0-27.53,6.11-37.55,15.43V28.05h-19.94v151.76h19.94v-53.28
		c10.11,8.63,23.22,13.85,37.55,13.85c31.96,0,57.87-25.91,57.87-57.87C590.62,50.54,564.71,24.63,532.74,24.63z M532.74,120.02
		c-20.72,0-37.51-16.79-37.51-37.51c0-20.72,16.79-37.51,37.51-37.51s37.51,16.79,37.51,37.51
		C570.26,103.22,553.46,120.02,532.74,120.02z"/>
	<path class="st1" d="M717.06,85.56c0.05-1.01,0.09-2.03,0.09-3.05c0-35.62-23.42-57.87-55.38-57.87
		c-31.96,0-57.87,25.91-57.87,57.87c0,31.96,25.91,57.87,57.87,57.87c21.35,0,39.98-11.57,50.01-28.77l-16.8-10.6
		c-6.38,10.79-19.12,19.01-33.22,19.01c-19.69,0-35.82-15.17-37.38-34.46L717.06,85.56z M661.76,43.11
		c16.24,0,30.07,11.49,35.29,26.44h-70.58C631.69,54.6,645.52,43.11,661.76,43.11z"/>
	<path class="st1" d="M196.16,26.99l-33.13,81.19l-33.14-81.19h-23.16l44.72,109.57l-0.09,0.21c-5.63,13.81-18.91,22.73-33.83,22.73
		V180c23.28,0,44.01-13.93,52.81-35.48L218.3,26.99H196.16z"/>
	<g>
		<path class="st1" d="M276.71,120.02c-20.72,0-37.51-16.79-37.51-37.51s16.79-37.51,37.51-37.51c10.14,0,19.32,4.04,26.07,10.58
			l18.09-10.45c-10.61-12.53-26.45-20.49-44.16-20.49c-31.96,0-57.87,25.91-57.87,57.87s25.91,57.87,57.87,57.87
			c17.63,0,33.41-7.89,44.02-20.33l-18.11-10.46C295.89,116.04,286.77,120.02,276.71,120.02z"/>
	</g>
</g>
</svg>