<svg xmlns="http://www.w3.org/2000/svg" viewBox="0 0 717.15 180"><linearGradient id="a" gradientUnits="userSpaceOnUse" x1="309.525" y1="82.675" x2="459.087" y2="82.675"><stop offset="0" stop-color="#00c2f9"/><stop offset="1" stop-color="#143dfb"/></linearGradient><path d="M423.11 3.25L321.52 61.9c-15.99 9.23-15.99 32.31 0 41.54l101.59 58.65c15.99 9.23 35.98-2.31 35.98-20.77V24.02c0-18.46-19.99-30-35.98-20.77zm-21.72 116.77c-20.72 0-37.51-16.79-37.51-37.51S380.67 45 401.39 45s37.51 16.79 37.51 37.51c0 20.71-16.79 37.51-37.51 37.51z" fill="url(#a)"/><path d="M68.31 137.29H.96v-20h67.35c5.42 0 9.84-4.44 9.84-9.89 0-4.59-3.1-8.55-7.54-9.62L22.85 86.27C9.4 83.03 0 71.08 0 57.21v-.45c0-16.48 13.38-29.89 29.84-29.89h60.49v20H29.84c-5.42 0-9.84 4.44-9.84 9.89v.45c0 4.59 3.1 8.55 7.54 9.62l47.75 11.51c13.46 3.25 22.85 15.2 22.85 29.06.01 16.49-13.38 29.89-29.83 29.89zM532.74 24.63c-14.48 0-27.53 6.11-37.55 15.43V28.05h-19.94v151.76h19.94v-53.28c10.11 8.63 23.22 13.85 37.55 13.85 31.96 0 57.87-25.91 57.87-57.87.01-31.97-25.9-57.88-57.87-57.88zm0 95.39c-20.72 0-37.51-16.79-37.51-37.51S512.02 45 532.74 45s37.51 16.79 37.51 37.51c.01 20.71-16.79 37.51-37.51 37.51zm184.32-34.46c.05-1.01.09-2.03.09-3.05 0-35.62-23.42-57.87-55.38-57.87S603.9 50.55 603.9 82.51c0 31.96 25.91 57.87 57.87 57.87 21.35 0 39.98-11.57 50.01-28.77l-16.8-10.6c-6.38 10.79-19.12 19.01-33.22 19.01-19.69 0-35.82-15.17-37.38-34.46h92.68zm-55.3-42.45c16.24 0 30.07 11.49 35.29 26.44h-70.58c5.22-14.95 19.05-26.44 35.29-26.44zm-465.6-16.12l-33.13 81.19-33.14-81.19h-23.16l44.72 109.57-.09.21c-5.63 13.81-18.91 22.73-33.83 22.73V180c23.28 0 44.01-13.93 52.81-35.48L218.3 26.99h-22.14zm80.55 93.03c-20.72 0-37.51-16.79-37.51-37.51S255.99 45 276.71 45c10.14 0 19.32 4.04 26.07 10.58l18.09-10.45c-10.61-12.53-26.45-20.49-44.16-20.49-31.96 0-57.87 25.91-57.87 57.87s25.91 57.87 57.87 57.87c17.63 0 33.41-7.89 44.02-20.33l-18.11-10.46c-6.73 6.45-15.85 10.43-25.91 10.43z" fill="#fff"/></svg>